<svg width="64" height="64" viewBox="0 0 64 64" fill="none" xmlns="http://www.w3.org/2000/svg">
<path d="M32 29.0536H51.4196C51.6339 30.25 51.7411 31.3928 51.7411 32.4821C51.7411 36.3571 50.9286 39.817 49.3036 42.8616C47.6786 45.9062 45.3616 48.2857 42.3527 50C39.3438 51.7143 35.8929 52.5714 32 52.5714C29.1964 52.5714 26.5268 52.0312 23.9911 50.9509C21.4554 49.8705 19.2679 48.4107 17.4286 46.5714C15.5893 44.7321 14.1295 42.5446 13.0491 40.0089C11.9688 37.4732 11.4286 34.8036 11.4286 32C11.4286 29.1964 11.9688 26.5268 13.0491 23.9911C14.1295 21.4553 15.5893 19.2678 17.4286 17.4286C19.2679 15.5893 21.4554 14.1295 23.9911 13.0491C26.5268 11.9687 29.1964 11.4286 32 11.4286C37.3571 11.4286 41.9554 13.2232 45.7946 16.8125L40.1964 22.1964C38 20.0714 35.2679 19.0089 32 19.0089C29.6964 19.0089 27.567 19.5893 25.6116 20.75C23.6563 21.9107 22.1071 23.4866 20.9643 25.4777C19.8214 27.4687 19.25 29.6428 19.25 32C19.25 34.3571 19.8214 36.5312 20.9643 38.5223C22.1071 40.5134 23.6563 42.0893 25.6116 43.25C27.567 44.4107 29.6964 44.9911 32 44.9911C33.5536 44.9911 34.9821 44.7768 36.2857 44.3482C37.5893 43.9196 38.6607 43.3839 39.5 42.7411C40.3393 42.0982 41.0714 41.3661 41.6964 40.5446C42.3214 39.7232 42.7813 38.9464 43.0759 38.2143C43.3705 37.4821 43.5714 36.7857 43.6786 36.125H32V29.0536Z" fill="#BBBBBB"/>
</svg>
