<svg width="64" height="64" viewBox="0 0 64 64" fill="none" xmlns="http://www.w3.org/2000/svg">
<path d="M26 20.105L37.04 13.73C37.0475 13.73 37.0475 13.7225 37.055 13.7225C36.62 12.8525 36.05 12.065 35.3675 11.3825C33.74 9.755 31.49 8.75 29 8.75C24.035 8.75 20.0075 12.77 20 17.735C20 17.7425 20 17.7425 20 17.75V30.5L25.9775 33.965L26 20.105Z" fill="#BBBBBB"/>
<path d="M13.6595 35.267L24.701 41.642L30.6905 38.198L18.6988 31.2485L18.698 18.5C18.7018 18.4932 18.695 18.4895 18.6988 18.4835C17.7275 18.425 16.7608 18.5247 15.8285 18.7752C13.6055 19.3707 11.6098 20.8167 10.3648 22.9737C7.88225 27.2735 9.35 32.7717 13.646 35.2602C13.6528 35.2632 13.6528 35.2632 13.6595 35.267Z" fill="#BBBBBB"/>
<path d="M36.713 36.233L24.6988 43.1435L13.658 36.77C13.6543 36.7633 13.6475 36.767 13.6438 36.761C13.1075 37.5725 12.7108 38.4605 12.461 39.3927C11.8655 41.6157 12.1198 44.0668 13.3648 46.2238C15.8473 50.5235 21.3425 52.0018 25.646 49.5253C25.6528 49.5215 25.6528 49.5215 25.6588 49.5177L36.7002 43.1427L36.713 36.233Z" fill="#BBBBBB"/>
<path d="M38 43.895L26.96 50.27C26.9525 50.27 26.9525 50.2775 26.945 50.2775C27.38 51.1475 27.95 51.935 28.6325 52.6175C30.26 54.245 32.51 55.25 35 55.25C39.965 55.25 43.9925 51.23 44 46.265C44 46.2575 44 46.2575 44 46.25V33.5L38.0225 30.035L38 43.895Z" fill="#BBBBBB"/>
<path d="M50.354 28.7405C50.3473 28.7368 50.3473 28.7368 50.3413 28.733L39.2998 22.358L33.3103 25.802L45.302 32.7515V45.5C45.2983 45.5068 45.305 45.5105 45.3013 45.5165C46.2725 45.575 47.2393 45.4753 48.1715 45.2248C50.3945 44.6293 52.3903 43.1833 53.6353 41.0263C56.1178 36.7273 54.65 31.229 50.354 28.7405Z" fill="#BBBBBB"/>
<path d="M50.342 27.23C50.3458 27.2368 50.3525 27.233 50.3562 27.239C50.8925 26.4275 51.2892 25.5403 51.539 24.6073C52.1345 22.3843 51.8803 19.9333 50.6353 17.7763C48.1528 13.4765 42.6575 11.9983 38.354 14.4748C38.3473 14.4785 38.3473 14.4785 38.3413 14.4823L27.2998 20.8573L27.2878 27.7663L39.302 20.8558L50.342 27.23Z" fill="#BBBBBB"/>
</svg>
