<svg width="32" height="32" viewBox="0 0 32 32" fill="none" xmlns="http://www.w3.org/2000/svg">
<path fill-rule="evenodd" clip-rule="evenodd" d="M1 16C1 11.3976 4.73097 7.66663 9.33333 7.66663C11.2078 7.66663 12.942 8.28751 14.3351 9.33413C15.071 9.88703 15.2194 10.9318 14.6665 11.6677C14.1136 12.4037 13.0688 12.552 12.3329 11.9991C11.4973 11.3713 10.4611 11 9.33333 11C6.57192 11 4.33333 13.2385 4.33333 16C4.33333 18.7614 6.57192 21 9.33333 21C10.0461 21 10.5406 20.8726 10.917 20.6892C11.2949 20.505 11.6451 20.2199 12.0085 19.7766C12.6758 18.9626 13.2257 17.8492 14.0051 16.2711C14.1628 15.9517 14.3299 15.6134 14.5093 15.2546C14.6585 14.9562 14.8058 14.6565 14.9525 14.3579C15.7245 12.7869 16.4806 11.2482 17.4137 10.11C18.0067 9.38661 18.7182 8.75505 19.6229 8.31419C20.5291 7.87262 21.5385 7.66663 22.6667 7.66663C27.269 7.66663 31 11.3976 31 16C31 20.6023 27.269 24.3333 22.6667 24.3333C20.7921 24.3333 19.0584 23.7121 17.6656 22.6658C16.9297 22.113 16.7813 21.0682 17.3341 20.3322C17.887 19.5963 18.9318 19.4479 19.6677 20.0007C20.5035 20.6286 21.5393 21 22.6667 21C25.4281 21 27.6667 18.7614 27.6667 16C27.6667 13.2385 25.4281 11 22.6667 11C21.9539 11 21.4595 11.1273 21.083 11.3107C20.7051 11.4949 20.355 11.78 19.9915 12.2233C19.3242 13.0373 18.7743 14.1508 17.9949 15.7289C17.8372 16.0482 17.6701 16.3866 17.4907 16.7453C17.3415 17.0437 17.1942 17.3435 17.0475 17.642C16.2755 19.213 15.5194 20.7517 14.5863 21.8899C13.9933 22.6133 13.2819 23.2449 12.3771 23.6857C11.4709 24.1273 10.4615 24.3333 9.33333 24.3333C4.73096 24.3333 1 20.6023 1 16Z" fill="#374151"/>
</svg>
