<svg width="133" height="24" viewBox="0 0 133 24" fill="none" xmlns="http://www.w3.org/2000/svg">
<path d="M97.9653 15.744C97.9653 14.4 99.0693 13.296 100.413 13.296C101.757 13.296 102.885 14.4 102.885 15.744C102.885 17.064 101.757 18.216 100.413 18.216C99.0693 18.216 97.9653 17.064 97.9653 15.744Z" fill="#374151"/>
<path d="M87.4839 10.992V18H83.8359V0.624023H87.4839V6.84002C88.2279 6.09602 89.4759 5.76002 90.5319 5.76002C93.6519 5.76002 95.0439 7.89602 95.0439 10.512V18H91.3959V11.136C91.3959 9.96002 90.7719 9.07202 89.4519 9.07202C88.2999 9.07202 87.5559 9.88802 87.4839 10.992Z" fill="#374151"/>
<path d="M75.8788 9.07204C74.3668 9.07204 73.1428 10.128 73.1428 12.048C73.1428 13.944 74.4148 15 75.9268 15C77.3428 15 78.1348 14.112 78.3988 13.224L81.6148 14.208C81.0868 16.296 79.1188 18.36 75.9268 18.36C72.3748 18.36 69.5188 15.744 69.5188 12.048C69.5188 8.32804 72.3028 5.71204 75.8068 5.71204C79.0948 5.71204 81.0148 7.72804 81.5428 9.86404L78.2788 10.848C78.0148 9.93604 77.2948 9.07204 75.8788 9.07204Z" fill="#374151"/>
<path d="M68.3106 6.07203V9.67203C67.9026 9.57603 67.5186 9.55203 67.1586 9.55203C65.6946 9.55203 64.3746 10.416 64.3746 12.792V18H60.7266V6.07203H64.2546V7.68003C64.8786 6.33603 66.3906 5.95203 67.3506 5.95203C67.7106 5.95203 68.0706 6.00003 68.3106 6.07203Z" fill="#374151"/>
<path d="M46.905 14.712C46.905 12.6 48.465 11.4 50.433 11.112L53.241 10.68C53.889 10.584 54.105 10.272 54.105 9.86404C54.105 9.16804 53.505 8.56804 52.353 8.56804C51.081 8.56804 50.385 9.43204 50.313 10.32L47.145 9.67204C47.289 7.96804 48.873 5.71204 52.377 5.71204C56.241 5.71204 57.657 7.87204 57.657 10.32V16.152C57.657 17.088 57.777 17.88 57.801 18H54.513C54.489 17.904 54.393 17.472 54.393 16.656C53.769 17.664 52.617 18.336 51.033 18.336C48.417 18.336 46.905 16.608 46.905 14.712ZM51.921 15.696C53.001 15.696 54.105 15.168 54.105 13.32V12.792L51.849 13.152C51.081 13.272 50.505 13.632 50.505 14.472C50.505 15.096 50.913 15.696 51.921 15.696Z" fill="#374151"/>
<path d="M36.9787 10.608H41.7547C41.7067 9.69604 41.0827 8.59204 39.3547 8.59204C37.8187 8.59204 37.0507 9.72004 36.9787 10.608ZM42.0187 13.704L45.0667 14.568C44.4907 16.632 42.5947 18.36 39.5707 18.36C36.2827 18.36 33.3547 16.008 33.3547 12C33.3547 8.16004 36.2107 5.71204 39.3067 5.71204C43.0027 5.71204 45.2827 7.99204 45.2827 11.832C45.2827 12.336 45.2347 12.888 45.2107 12.96H36.9067C36.9787 14.304 38.2027 15.264 39.6187 15.264C40.9387 15.264 41.6827 14.64 42.0187 13.704Z" fill="#374151"/>
<path d="M22.0785 14.616L25.1745 14.064C25.2225 14.88 25.7985 15.672 27.0465 15.672C27.9825 15.672 28.4385 15.168 28.4385 14.64C28.4385 14.208 28.1505 13.848 27.2625 13.656L25.8945 13.344C23.3505 12.792 22.3425 11.352 22.3425 9.67204C22.3425 7.48804 24.2625 5.71204 26.9265 5.71204C30.3825 5.71204 31.5825 7.87204 31.7025 9.26404L28.6785 9.81604C28.5825 9.02404 28.0785 8.35204 26.9745 8.35204C26.2785 8.35204 25.6785 8.76004 25.6785 9.38404C25.6785 9.88803 26.0865 10.176 26.6145 10.272L28.1985 10.584C30.6705 11.088 31.8705 12.576 31.8705 14.328C31.8705 16.368 30.3105 18.36 27.1185 18.36C23.3745 18.36 22.1745 15.936 22.0785 14.616Z" fill="#374151"/>
<path d="M12.4162 10.608H17.1922C17.1442 9.69604 16.5202 8.59204 14.7922 8.59204C13.2562 8.59204 12.4882 9.72004 12.4162 10.608ZM17.4562 13.704L20.5042 14.568C19.9282 16.632 18.0322 18.36 15.0082 18.36C11.7202 18.36 8.79224 16.008 8.79224 12C8.79224 8.16004 11.6482 5.71204 14.7442 5.71204C18.4402 5.71204 20.7202 7.99204 20.7202 11.832C20.7202 12.336 20.6722 12.888 20.6482 12.96H12.3442C12.4162 14.304 13.6402 15.264 15.0562 15.264C16.3762 15.264 17.1202 14.64 17.4562 13.704Z" fill="#374151"/>
<path d="M7.584 6.07203V9.67203C7.176 9.57603 6.792 9.55203 6.432 9.55203C4.968 9.55203 3.648 10.416 3.648 12.792V18H0V6.07203H3.528V7.68003C4.152 6.33603 5.664 5.95203 6.624 5.95203C6.984 5.95203 7.344 6.00003 7.584 6.07203Z" fill="#374151"/>
<path fill-rule="evenodd" clip-rule="evenodd" d="M109.142 12C109.142 8.54822 111.94 5.75 115.392 5.75C116.798 5.75 118.098 6.21566 119.143 7.00063C119.695 7.4153 119.807 8.19889 119.392 8.75083C118.977 9.30277 118.194 9.41405 117.642 8.99937C117.015 8.52852 116.238 8.25 115.392 8.25C113.321 8.25 111.642 9.92894 111.642 12C111.642 14.071 113.321 15.75 115.392 15.75C115.927 15.75 116.297 15.6545 116.58 15.5169C116.863 15.3788 117.126 15.165 117.398 14.8325C117.899 14.222 118.311 13.3869 118.896 12.2033C119.014 11.9638 119.139 11.7101 119.274 11.441C119.386 11.2172 119.496 10.9924 119.606 10.7685C120.185 9.59022 120.752 8.43621 121.452 7.58252C121.897 7.03999 122.431 6.56632 123.109 6.23567C123.789 5.9045 124.546 5.75 125.392 5.75C128.844 5.75 131.642 8.54822 131.642 12C131.642 15.4518 128.844 18.25 125.392 18.25C123.986 18.25 122.686 17.7841 121.641 16.9994C121.089 16.5848 120.978 15.8012 121.393 15.2492C121.807 14.6973 122.591 14.5859 123.143 15.0006C123.77 15.4715 124.546 15.75 125.392 15.75C127.463 15.75 129.142 14.071 129.142 12C129.142 9.92894 127.463 8.25 125.392 8.25C124.857 8.25 124.487 8.3455 124.204 8.48308C123.921 8.62118 123.658 8.83501 123.386 9.16748C122.885 9.77801 122.473 10.6131 121.888 11.7967C121.77 12.0362 121.645 12.29 121.51 12.559C121.398 12.7828 121.288 13.0076 121.178 13.2316C120.599 14.4098 120.032 15.5638 119.332 16.4175C118.887 16.96 118.353 17.4337 117.675 17.7643C116.995 18.0955 116.238 18.25 115.392 18.25C111.94 18.25 109.142 15.4518 109.142 12Z" fill="#374151"/>
</svg>
